<svg xmlns="http://www.w3.org/2000/svg" width="239.587" height="38.401" viewBox="0 0 239.587 38.401">
  <g id="logo-white" transform="translate(-0.009 -0.239)">
    <path id="Path_7" data-name="Path 7" d="M27.967.879c-7.725,0-15.785,1.736-23.92,3.993a4.143,4.143,0,0,0-2.574,1.72A6.554,6.554,0,0,0,.652,9a63.859,63.859,0,0,0-.53,13.594,6.811,6.811,0,0,0,.715,3.2A3.654,3.654,0,0,0,3.4,27.279q2.11.309,4.232.525l-.312,8.7a1.877,1.877,0,0,0,.71,1.6,2.249,2.249,0,0,0,1.225.445,2.442,2.442,0,0,0,2.37-1.257,31.389,31.389,0,0,1,6.317-8.9,199.719,199.719,0,0,0,20.482-.745A5.218,5.218,0,0,0,43.094,23.9c1.357-4.232,1.568-9.456,1.712-14.737a6.726,6.726,0,0,0-1.95-5.234A10.454,10.454,0,0,0,38.8,2.216,52.09,52.09,0,0,0,27.967.879Zm10.29,3.31a9.392,9.392,0,0,1,3.31,1.337,4.215,4.215,0,0,1,1.2,3.675c-.142,5.122-.388,10.093-1.544,13.86a3.379,3.379,0,0,1-3.006,2.556,193.568,193.568,0,0,1-20.707.739,1.032,1.032,0,0,0-.763.3,33.924,33.924,0,0,0-6.921,9.676.373.373,0,0,1-.315.175.148.148,0,0,1-.142-.148l.314-9.432a1.055,1.055,0,0,0-.907-1.05q-2.538-.242-5.06-.62c-.726-.111-.994-.31-1.193-.606a5.082,5.082,0,0,1-.365-2.128,62.522,62.522,0,0,1,.491-13.1,5.894,5.894,0,0,1,.542-1.767,2.4,2.4,0,0,1,1.644-.9c7.956-2.2,15.74-3.84,23.068-3.845A50.338,50.338,0,0,1,38.257,4.189Zm-27.479,8.09a3.53,3.53,0,0,0-.14,4.29,2.929,2.929,0,0,0,1.972,1.242,3.639,3.639,0,0,0,2.53-.86,3.56,3.56,0,0,0,.461-4.71A2.862,2.862,0,0,0,13.383,11a3.311,3.311,0,0,0-2.6,1.277Zm11.856-1.072a3.283,3.283,0,0,0-2.514,1.607,3.374,3.374,0,0,0-.478,3.246c.96,2.2,4.277,2.176,5.6-.063a3.12,3.12,0,0,0,0-3.056,2.986,2.986,0,0,0-2.131-1.7,2.494,2.494,0,0,0-.477-.032Zm9.625.207a3.669,3.669,0,0,0-1.018.111,3.19,3.19,0,0,0-2.26,3.437,3.378,3.378,0,0,0,1.21,2.308,3.463,3.463,0,0,0,2.88.62,3.1,3.1,0,0,0,2.323-2.275A3.2,3.2,0,0,0,34.98,12.8a3.47,3.47,0,0,0-2.72-1.384ZM13.294,13.037a.713.713,0,0,1,.637.366,1.646,1.646,0,0,1-.128,2.005c-.447.39-.726.424-.922.4a.887.887,0,0,1-.573-.414,1.464,1.464,0,0,1,.987-2.355Zm9.483.223a1.653,1.653,0,0,1,.668.636,1.033,1.033,0,0,1,.048,1.066,1.233,1.233,0,0,1-1.99.287,1.912,1.912,0,0,1,.32-1.32,1.238,1.238,0,0,1,.954-.67Zm10.564.748a1.812,1.812,0,0,1,.1,1.082.948.948,0,0,1-.78.811,1.3,1.3,0,0,1-1.193-.207A1.372,1.372,0,0,1,31,14.771c-.09-.92.24-1.133.764-1.273A1.574,1.574,0,0,1,33.341,14.008Z" fill="#fff"/>
    <path id="Path_8" data-name="Path 8" d="M57.61,5a1.169,1.169,0,0,1,.287-.7.875.875,0,0,1,.7-.31h6.826a1.17,1.17,0,0,1,.712.287A.883.883,0,0,1,66.5,5V15.889H77.925V5a1,1,0,0,1,1.034-1.012h6.734a1.418,1.418,0,0,1,.8.23.821.821,0,0,1,.345.736V37.1a.934.934,0,0,1-.3.758,1.162,1.162,0,0,1-.78.253h-6.8a1.089,1.089,0,0,1-.747-.253.956.956,0,0,1-.287-.758V24.047H66.5V37.1a.931.931,0,0,1-.31.747,1.254,1.254,0,0,1-.84.264H58.6q-.965,0-.988-.9V5Zm62.875,32.725a1.426,1.426,0,0,1-.632.321,3.123,3.123,0,0,1-.631.07h-3.47a1.573,1.573,0,0,1-.713-.15,1.533,1.533,0,0,1-.506-.4,2.384,2.384,0,0,1-.344-.575,4.885,4.885,0,0,1-.23-.666l-.712-2.942a11.139,11.139,0,0,1-1,1.62,8.495,8.495,0,0,1-1.666,1.7,9.266,9.266,0,0,1-2.413,1.334,8.911,8.911,0,0,1-3.218.54,10.836,10.836,0,0,1-8.4-3.769,12.648,12.648,0,0,1-2.332-4.08,14.755,14.755,0,0,1-.828-4.974V10.695a2,2,0,0,1,.38-1.321,1.492,1.492,0,0,1,1.206-.448h5.308a2.05,2.05,0,0,1,1.356.333,1.74,1.74,0,0,1,.368,1.3v14.96a4.1,4.1,0,0,0,.448,1.874,5.462,5.462,0,0,0,1.184,1.562,5.665,5.665,0,0,0,1.666,1.069,4.861,4.861,0,0,0,1.9.39,4.236,4.236,0,0,0,1.712-.39,6.361,6.361,0,0,0,1.631-1.046,5.586,5.586,0,0,0,1.23-1.54,3.85,3.85,0,0,0,.482-1.872V10.626a2.169,2.169,0,0,1,.15-.781,1.248,1.248,0,0,1,.448-.6A2.118,2.118,0,0,1,113.419,9a2.422,2.422,0,0,1,.609-.07h5.194a1.841,1.841,0,0,1,1.424.483,1.847,1.847,0,0,1,.437,1.287V36.411a1.691,1.691,0,0,1-.195.8,1.437,1.437,0,0,1-.54.574l.137-.068Zm26.681-3.172q-.621.621-1.367,1.333a13.52,13.52,0,0,1-1.643,1.333,9.3,9.3,0,0,1-1.93,1.023,6.1,6.1,0,0,1-2.23.4,13.983,13.983,0,0,1-5.757-1.172,13.777,13.777,0,0,1-4.527-3.206,14.759,14.759,0,0,1-2.964-4.792,16.249,16.249,0,0,1-1.069-5.929,16.22,16.22,0,0,1,1.069-5.94,14.8,14.8,0,0,1,2.964-4.78,13.635,13.635,0,0,1,4.527-3.194A14.108,14.108,0,0,1,140,8.466a6.926,6.926,0,0,1,2.31.368,8.51,8.51,0,0,1,1.907.942,10.4,10.4,0,0,1,1.586,1.3q.723.724,1.367,1.414V1.985a1.805,1.805,0,0,1,.448-1.24,1.7,1.7,0,0,1,1.345-.506h5.17a1.784,1.784,0,0,1,.632.126,2.143,2.143,0,0,1,.61.357,1.856,1.856,0,0,1,.447.551,1.485,1.485,0,0,1,.173.712V36.342q0,1.77-1.862,1.77h-4.5a1.774,1.774,0,0,1-.712-.116,1.13,1.13,0,0,1-.426-.333,2.318,2.318,0,0,1-.31-.551q-.163-.389-.344-.77l-.667-1.793ZM133.952,23.541a8.39,8.39,0,0,0,.471,2.839,6.724,6.724,0,0,0,1.345,2.286,6.384,6.384,0,0,0,2.1,1.528,6.458,6.458,0,0,0,2.724.563,7.283,7.283,0,0,0,2.769-.528,7.058,7.058,0,0,0,2.263-1.46,7.276,7.276,0,0,0,2.207-4.906v-.322a7.26,7.26,0,0,0-.552-2.8,7.427,7.427,0,0,0-1.528-2.344,7.242,7.242,0,0,0-2.3-1.6,6.977,6.977,0,0,0-2.861-.586,6.247,6.247,0,0,0-2.724.586,6.345,6.345,0,0,0-2.1,1.6,7.236,7.236,0,0,0-1.345,2.344,8.35,8.35,0,0,0-.47,2.8Zm48.72,11.008q-.621.621-1.368,1.333a13.52,13.52,0,0,1-1.643,1.333,9.3,9.3,0,0,1-1.93,1.023,6.1,6.1,0,0,1-2.23.4,13.975,13.975,0,0,1-5.756-1.172,13.777,13.777,0,0,1-4.528-3.206,14.776,14.776,0,0,1-2.964-4.792,16.27,16.27,0,0,1-1.069-5.929,16.24,16.24,0,0,1,1.069-5.94,14.8,14.8,0,0,1,2.964-4.78,13.635,13.635,0,0,1,4.528-3.194A14.1,14.1,0,0,1,175.5,8.466a6.926,6.926,0,0,1,2.31.368,8.51,8.51,0,0,1,1.907.942,10.405,10.405,0,0,1,1.586,1.3q.725.724,1.367,1.414V1.985a1.805,1.805,0,0,1,.448-1.24,1.7,1.7,0,0,1,1.345-.506h5.17a1.784,1.784,0,0,1,.632.126,2.116,2.116,0,0,1,.61.357,1.86,1.86,0,0,1,.448.551,1.5,1.5,0,0,1,.172.712V36.342q0,1.77-1.862,1.77h-4.5a1.774,1.774,0,0,1-.712-.116,1.13,1.13,0,0,1-.425-.333,2.32,2.32,0,0,1-.31-.551q-.163-.389-.345-.77l-.667-1.793ZM169.457,23.541a8.39,8.39,0,0,0,.471,2.839,6.757,6.757,0,0,0,1.345,2.286,6.384,6.384,0,0,0,2.1,1.528,6.453,6.453,0,0,0,2.723.563,7.283,7.283,0,0,0,2.769-.528,7.058,7.058,0,0,0,2.264-1.46,7.293,7.293,0,0,0,2.206-4.906v-.322a7.26,7.26,0,0,0-.552-2.8,7.427,7.427,0,0,0-1.528-2.344,7.242,7.242,0,0,0-2.3-1.6,6.977,6.977,0,0,0-2.861-.586,6.24,6.24,0,0,0-2.723.586,6.349,6.349,0,0,0-2.1,1.6,7.236,7.236,0,0,0-1.345,2.344,8.35,8.35,0,0,0-.47,2.8ZM197.61,2.008a2.051,2.051,0,0,1,.367-1.24,1.459,1.459,0,0,1,1.264-.506h5.63a1.08,1.08,0,0,1,.483.126,1.7,1.7,0,0,1,.471.357,2.041,2.041,0,0,1,.368.551,1.666,1.666,0,0,1,.15.712V36.342a1.692,1.692,0,0,1-.495,1.321,1.822,1.822,0,0,1-1.275.448h-5.332a1.558,1.558,0,0,1-1.264-.448,2.046,2.046,0,0,1-.367-1.321Zm38.7,32.61a15.31,15.31,0,0,1-4.55,2.907,13.87,13.87,0,0,1-5.355,1.046,15.64,15.64,0,0,1-10.87-4.332,15.273,15.273,0,0,1-3.355-4.792,14.431,14.431,0,0,1-1.241-6,15.529,15.529,0,0,1,1.9-7.468,15.055,15.055,0,0,1,2.206-3.045,13.957,13.957,0,0,1,2.907-2.379,14.327,14.327,0,0,1,3.493-1.54,14.084,14.084,0,0,1,3.975-.551,13.565,13.565,0,0,1,3.7.506,14.421,14.421,0,0,1,3.367,1.424,14.636,14.636,0,0,1,2.884,2.207,14.9,14.9,0,0,1,2.252,2.815,13.581,13.581,0,0,1,1.46,3.263,12.471,12.471,0,0,1,.517,3.573q0,1.2-.035,1.954a2.21,2.21,0,0,1-.356,1.206,1.721,1.721,0,0,1-1.069.62,10.377,10.377,0,0,1-2.194.173H219.4a5.727,5.727,0,0,0,.93,2.46,5.842,5.842,0,0,0,1.62,1.573,6.5,6.5,0,0,0,1.954.84,8.24,8.24,0,0,0,1.953.252,8.833,8.833,0,0,0,1.7-.172,12.178,12.178,0,0,0,1.69-.46,9.556,9.556,0,0,0,1.493-.667,4.972,4.972,0,0,0,1.092-.792,4.769,4.769,0,0,1,.632-.449,1.122,1.122,0,0,1,.563-.149,1.108,1.108,0,0,1,.61.207,4.8,4.8,0,0,1,.7.6l2.436,2.758a1.559,1.559,0,0,1,.322.54,1.791,1.791,0,0,1,.069.494,1.276,1.276,0,0,1-.253.793,2.89,2.89,0,0,1-.6.586ZM225.256,15.475a4.4,4.4,0,0,0-1.735.356,6.547,6.547,0,0,0-1.575.954,8.194,8.194,0,0,0-1.321,1.356,8.315,8.315,0,0,0-.954,1.54h11.743a13.536,13.536,0,0,0-1.045-1.655,7.08,7.08,0,0,0-1.287-1.333,5.558,5.558,0,0,0-1.655-.9,6.629,6.629,0,0,0-2.171-.322Z" fill="#fff"/>
  </g>
</svg>
